<svg xmlns="http://www.w3.org/2000/svg" viewBox="0 0 343.808 323.171"><defs><style>.prefix__cls-1{fill:#fff}.prefix__cls-2{fill:#85c0fa}.prefix__cls-3{fill:#067ff5}.prefix__cls-4{fill:#0a1322}</style></defs><path class="prefix__cls-1" d="M160.894 107.948a14.178 14.178 0 004.167-10.06V45.965a14.228 14.228 0 00-14.228-14.229H33.853a14.228 14.228 0 00-14.229 14.229v51.921a14.229 14.229 0 0014.229 14.229h21.459l2.743-5.968a1.262 1.262 0 012.293 0l2.743 5.968h87.742a14.178 14.178 0 0010.061-4.168zm-64.516-52.7h54.627a1.262 1.262 0 110 2.524H96.378a1.262 1.262 0 110-2.524zm0 14.458h54.627a1.262 1.262 0 110 2.524H96.378a1.262 1.262 0 110-2.524zM60.13 95.466A23.465 23.465 0 1183.594 72 23.465 23.465 0 0160.13 95.465zm68.157-8.779H96.378a1.262 1.262 0 110-2.523h31.908a1.262 1.262 0 110 2.523z"/><path class="prefix__cls-2" d="M60.13 51.06a20.941 20.941 0 1014.807 6.133 20.869 20.869 0 00-14.808-6.134z"/><path class="prefix__cls-1" d="M89.11 210.77c-7.736 2.846-18.272 4.572-29.909 4.575a102.658 102.658 0 01-21.008-2.062 50.287 50.287 0 01-15.292-5.514 15.362 15.362 0 01-5.636-5.334 8.548 8.548 0 01-.355-.733L2.818 232.36a1.263 1.263 0 01-.088.315 7.277 7.277 0 00-.636 2.913 7.59 7.59 0 001.027 3.72 14.106 14.106 0 003.127 3.698 39.423 39.423 0 0012.116 6.603c10.37 3.824 24.847 6.224 40.837 6.221a150.584 150.584 0 0018.711-1.139 67.556 67.556 0 0121.628-35.557 56.466 56.466 0 01-6.617-9.977q-1.772.857-3.814 1.613z"/><path class="prefix__cls-2" d="M87.72 171.743l-2.241-4.878a8.437 8.437 0 01-1.552 1.76 19.256 19.256 0 01-5.95 3.27 56.289 56.289 0 01-18.776 2.876 64.36 64.36 0 01-13.171-1.293 31.744 31.744 0 01-9.664-3.49 10.437 10.437 0 01-3.435-3.14l-13.652 29.7a1.258 1.258 0 01-.071.244 4.834 4.834 0 00-.424 1.936 5.058 5.058 0 00.688 2.482 9.717 9.717 0 002.154 2.543 27.81 27.81 0 008.54 4.648c7.35 2.712 17.653 4.423 29.035 4.42a100.162 100.162 0 0020.485-2.007 54.012 54.012 0 0012.118-3.925 56.535 56.535 0 01-4.083-35.146z"/><path class="prefix__cls-3" d="M36.133 166.722a16.855 16.855 0 005.165 2.805 53.865 53.865 0 0017.903 2.72 61.85 61.85 0 0012.648-1.238 29.357 29.357 0 008.878-3.179 7.613 7.613 0 002.779-2.563 2.671 2.671 0 00.368-1.313 2.531 2.531 0 00-.224-1.015 1.237 1.237 0 01-.044-.15L59.2 109.696 34.797 162.79a1.24 1.24 0 01-.044.15 2.533 2.533 0 00-.225 1.015 2.67 2.67 0 00.368 1.313 5.578 5.578 0 001.237 1.455z"/><path class="prefix__cls-1" d="M197.199 135.753a6.651 6.651 0 001.47-1.11 23.831 23.831 0 003.324-4.314c2.287-3.592 4.613-8.283 6.928-12.412a43.116 43.116 0 014.692-7.094 9.323 9.323 0 012.958-2.392 4.44 4.44 0 011.862-.431 7.397 7.397 0 014.188 1.377 17.19 17.19 0 013.248 3.038c1.971 2.29 3.77 4.89 5.714 6.484a6.273 6.273 0 004.046 1.675 2.843 2.843 0 001.41-.413 7.03 7.03 0 001.638-1.362 25.682 25.682 0 003.493-5.274c2.332-4.385 4.589-10.1 6.882-15.124a47.39 47.39 0 014.761-8.618 9.694 9.694 0 013.197-2.897c.116-.058.236-.106.356-.156V20.568c-.268.277-.549.55-.852.814A27.268 27.268 0 01248.095 26c-6.97 2.565-16.448 4.117-26.918 4.12a92.372 92.372 0 01-18.903-1.856 45.31 45.31 0 01-13.78-4.97 17.478 17.478 0 01-3.506-2.725V126.31a56.602 56.602 0 0112.026 9.517c.063-.029.118-.04.185-.074z"/><path class="prefix__cls-3" d="M233.357 244.686v-22.859c0-.029.015-.055.017-.084a1.249 1.249 0 01.066-.327 1.218 1.218 0 01.052-.128 1.24 1.24 0 01.187-.28c.019-.023.027-.052.048-.073.007-.007.017-.01.025-.016.01-.01.015-.023.025-.032l23.59-21.127v-.175a47.135 47.135 0 01-18.29-37.309 1.18 1.18 0 01.027-.136c-.007-.134-.028-.266-.028-.401a8.238 8.238 0 011.093-4.026 13.336 13.336 0 012.952-3.517 33.192 33.192 0 0110.243-5.616c1.265-.465 2.607-.9 4.002-1.309v-57.61a8.048 8.048 0 00-.998.977 27.225 27.225 0 00-3.327 5.287c-2.251 4.395-4.492 10.118-6.843 15.15a43.678 43.678 0 01-4.977 8.638 9.957 9.957 0 01-3.406 2.884 5.185 5.185 0 01-2.186.501 7.976 7.976 0 01-3.936-1.065 13.868 13.868 0 01-3.117-2.49c-1.868-1.927-3.458-4.224-5.075-5.996a10.584 10.584 0 00-3.205-2.598 4.39 4.39 0 00-1.863-.425 2.132 2.132 0 00-1.03.314 6.427 6.427 0 00-1.383 1.102 24.95 24.95 0 00-3.205 4.323c-2.23 3.6-4.545 8.297-6.903 12.433a40.37 40.37 0 01-4.85 7.108 10.989 10.989 0 01-2.28 1.95 56.312 56.312 0 011.587 72.373 67.445 67.445 0 0124.344 51.926v.279c3.002-.105 5.9-.338 8.644-.69V245.78a1.162 1.162 0 010-1.094z"/><path class="prefix__cls-2" d="M187.498 19.479a24.87 24.87 0 007.633 4.153c6.585 2.43 15.832 3.966 26.046 3.964a89.876 89.876 0 0018.38-1.801 42.92 42.92 0 0012.995-4.66 11.52 11.52 0 004.212-3.907 4.204 4.204 0 000-4.336 8.606 8.606 0 00-1.908-2.252 24.868 24.868 0 00-7.633-4.153c-6.586-2.43-15.832-3.966-26.046-3.963a89.87 89.87 0 00-18.38 1.8 42.919 42.919 0 00-12.995 4.66 11.52 11.52 0 00-4.212 3.908 4.204 4.204 0 000 4.336 8.606 8.606 0 001.908 2.25z"/><path class="prefix__cls-1" d="M142.95 239.538a56.24 56.24 0 01-41.758-18.497 65.504 65.504 0 00-3.53 3.254 64.872 64.872 0 00-19.061 46.02v2.368a8.799 8.799 0 001.189 4.313 16.203 16.203 0 003.591 4.25c3.185 2.777 7.92 5.363 13.826 7.536 11.813 4.356 28.283 7.084 46.476 7.081a160.18 160.18 0 0032.761-3.21c9.626-2.037 17.687-4.954 23.323-8.375 3.762-2.277 6.423-4.776 7.808-7.282a8.8 8.8 0 001.19-4.313v-2.368a64.873 64.873 0 00-19.062-46.02 65.544 65.544 0 00-4.367-3.98 56.239 56.239 0 01-42.387 19.223z"/><path class="prefix__cls-1" d="M142.95 237.015a53.862 53.862 0 10-38.086-15.776 53.688 53.688 0 0038.085 15.776zm112.807 25.933a7.704 7.704 0 01.869.053v-16.506H235.88v22.793h12.346a7.647 7.647 0 017.53-6.34zm26.185-24.588v-15.27H259.15v20.881h17.072a7.651 7.651 0 015.72-5.611zm2.524 15.059v15.869h20.966v-22.793h-14.176a7.649 7.649 0 01-6.79 6.924zm6.591-9.448h14.375V223.09h-20.966v15.121a7.649 7.649 0 016.591 5.761zm-6.591 27.84h20.966v20.882h-20.966zm-36.254 0h-12.33v20.882h20.744v-14.496a7.731 7.731 0 01-.869.053 7.646 7.646 0 01-7.545-6.439zm10.938 5.637v15.245h22.792v-20.882h-18.64a7.646 7.646 0 01-4.152 5.637zm16.874-30.953H259.15v17.255a7.648 7.648 0 014.137 5.538h18.655V253.27a7.648 7.648 0 01-5.918-6.775zm-40.143-23.406h20.745v20.882h-20.745z"/><path class="prefix__cls-3" d="M307.956 291.131l32.898-29.465v-68.739l-32.898 29.464v68.74z"/><path class="prefix__cls-1" d="M286.302 206.979a44.685 44.685 0 0044.3-38.778c-.35.368-.716.73-1.119 1.08a33.193 33.193 0 01-10.243 5.616c-8.51 3.132-20.117 5.035-32.938 5.038a113.08 113.08 0 01-23.14-2.271c-6.837-1.451-12.612-3.515-16.824-6.065a20.995 20.995 0 01-4.334-3.387 44.684 44.684 0 0044.298 38.767z"/><path class="prefix__cls-2" d="M275.404 146.559a100.8 100.8 0 00-11.72 1.724c-6.638 1.403-12.188 3.416-16.037 5.754a14.41 14.41 0 00-5.272 4.901 5.445 5.445 0 000 5.6 10.844 10.844 0 002.404 2.84 30.792 30.792 0 009.458 5.15c8.126 2.998 19.5 4.886 32.065 4.883a110.588 110.588 0 0022.618-2.216c6.638-1.404 12.189-3.417 16.038-5.754a14.41 14.41 0 005.272-4.902 5.445 5.445 0 000-5.6 10.847 10.847 0 00-2.404-2.84 30.795 30.795 0 00-9.458-5.15 84.05 84.05 0 00-20.597-4.345 20.751 20.751 0 01-22.367-.045zm24.395 11.232a6.314 6.314 0 012.318 2.22 3.45 3.45 0 010 3.455 5.198 5.198 0 01-1.15 1.378 11.653 11.653 0 01-3.61 1.99 33.1 33.1 0 01-11.055 1.699 37.792 37.792 0 01-7.736-.76 18.882 18.882 0 01-5.76-2.087 6.313 6.313 0 01-2.318-2.22 3.45 3.45 0 010-3.455 5.195 5.195 0 011.15-1.377 11.652 11.652 0 013.61-1.991 33.097 33.097 0 0111.054-1.699 37.78 37.78 0 017.736.76 18.886 18.886 0 015.76 2.087z"/><path class="prefix__cls-3" d="M255.757 265.472a5.127 5.127 0 103.625 1.502 5.105 5.105 0 00-3.625-1.502z"/><path class="prefix__cls-2" d="M283.64 240.688a5.127 5.127 0 103.625 1.501 5.105 5.105 0 00-3.625-1.501z"/><path class="prefix__cls-1" d="M299.591 141.958a18.337 18.337 0 10-12.966 5.371 18.275 18.275 0 0012.966-5.37z"/><path class="prefix__cls-2" d="M205.642 283.148c-3.53 3.07-8.51 5.752-14.61 8.002-12.199 4.49-28.901 7.234-47.35 7.237a162.676 162.676 0 01-33.284-3.266c-9.823-2.083-18.11-5.051-24.108-8.685a26.16 26.16 0 01-7.69-6.655v17.686a8.799 8.799 0 001.19 4.313 16.203 16.203 0 003.591 4.25c3.185 2.777 7.92 5.363 13.826 7.536 11.813 4.356 28.283 7.084 46.476 7.081a160.18 160.18 0 0032.761-3.21c9.626-2.037 17.687-4.953 23.323-8.375 3.762-2.276 6.423-4.776 7.808-7.282a8.8 8.8 0 001.19-4.313v-17.684a20.533 20.533 0 01-3.123 3.365z"/><path class="prefix__cls-4" d="M83.594 72A23.465 23.465 0 1060.13 95.465 23.465 23.465 0 0083.594 72zM39.19 72a20.941 20.941 0 116.133 14.808A20.87 20.87 0 0139.19 72zm57.188-14.228h54.627a1.262 1.262 0 100-2.524H96.378a1.262 1.262 0 100 2.524zm0 14.458h54.627a1.262 1.262 0 100-2.524H96.378a1.262 1.262 0 100 2.524zm0 14.457h31.908a1.262 1.262 0 100-2.523H96.378a1.262 1.262 0 100 2.523z"/><path class="prefix__cls-4" d="M343.372 190.062a1.231 1.231 0 00-.023-.16 1.252 1.252 0 00-.045-.208c-.005-.014-.004-.028-.009-.042-.014-.036-.039-.064-.056-.098a1.239 1.239 0 00-.107-.188 1.273 1.273 0 00-.104-.12 1.227 1.227 0 00-.15-.14 1.261 1.261 0 00-.142-.09 1.226 1.226 0 00-.105-.066c-.024-.01-.05-.012-.074-.02a1.27 1.27 0 00-.163-.047 1.236 1.236 0 00-.203-.031c-.026-.002-.05-.012-.075-.012H325.35a47.004 47.004 0 008.18-26.564 1.173 1.173 0 00-.028-.136c.007-.134.028-.267.028-.401a8.238 8.238 0 00-1.093-4.026 16.819 16.819 0 00-6.17-5.834c-4.212-2.55-9.987-4.615-16.823-6.066a99.815 99.815 0 00-8.773-1.43 20.861 20.861 0 10-28.17-.072 95.117 95.117 0 00-12.61 2.268V15.06a6.947 6.947 0 00-.92-3.393 13.927 13.927 0 00-5.11-4.84 45.311 45.311 0 00-13.78-4.97A92.372 92.372 0 00221.177 0c-10.47.003-19.949 1.555-26.918 4.119a27.268 27.268 0 00-8.419 4.618 11.097 11.097 0 00-2.457 2.93 6.947 6.947 0 00-.92 3.393v127.883a56.37 56.37 0 00-93.77 24.872l-2.713-5.904-21.73-47.271h86.582a16.753 16.753 0 0016.752-16.753V45.966a16.753 16.753 0 00-16.752-16.753H33.853A16.753 16.753 0 0017.1 45.966v51.921a16.753 16.753 0 0016.752 16.753H54.15l-21.728 47.27v.001l-15.56 33.852L.367 231.648a1.247 1.247 0 00-.101.411 9.684 9.684 0 00-.697 3.53 10.12 10.12 0 001.345 4.946c1.522 2.729 4.184 5.14 7.713 7.283 5.3 3.21 12.603 5.824 21.258 7.66a143.268 143.268 0 0029.315 2.877 153.956 153.956 0 0018.14-1.055 67.909 67.909 0 00-1.264 13.016v27.152a11.329 11.329 0 001.507 5.539c1.707 3.063 4.71 5.787 8.706 8.214 5.999 3.634 14.285 6.602 24.108 8.685a162.676 162.676 0 0033.285 3.266c18.448-.003 35.15-2.746 47.348-7.237 6.1-2.25 11.08-4.931 14.61-8.002a18.693 18.693 0 004.14-4.926 11.33 11.33 0 001.507-5.539v-27.152c0-1.99-.103-3.954-.272-5.9a100.146 100.146 0 0010.16.51 98.88 98.88 0 0012.181-.74v5.818a1.162 1.162 0 000 1.093v22.86c0 .01.007.02.007.032a1.245 1.245 0 00.077.418c.002.007.008.012.01.02.01.022.026.04.036.062a1.259 1.259 0 00.207.31c.014.015.019.035.033.05.02.02.049.027.07.046a1.247 1.247 0 00.269.18 1.2 1.2 0 00.114.055 1.257 1.257 0 00.44.088h72.075c.025 0 .047-.012.072-.013a1.244 1.244 0 00.293-.054c.035-.01.07-.013.104-.027l.03-.014a1.254 1.254 0 00.342-.214l35.422-31.725a1.262 1.262 0 00.22-.267l.04-.07a1.236 1.236 0 00.113-.278c.003-.013.01-.025.012-.038a1.264 1.264 0 00.035-.287v-72.128c0-.013-.005-.026-.006-.04zm-80.085 79.226a7.648 7.648 0 00-4.137-5.538v-17.255h16.874a7.648 7.648 0 005.918 6.775v16.018zm-27.406 0v-22.793h20.745v16.506a7.61 7.61 0 00-8.4 6.287zm55.176-25.317a7.649 7.649 0 00-6.59-5.76v-15.122h20.965v20.882zm-11.042 5.469a5.127 5.127 0 113.625 1.501 5.105 5.105 0 01-3.625-1.501zm-20.865-5.469V223.09h22.792v15.27a7.651 7.651 0 00-5.72 5.612zm-23.27-20.881h20.745v20.882H235.88zm16.25 43.885a5.127 5.127 0 11-1.5 3.625 5.105 5.105 0 011.5-3.625zm32.335-13.555a7.649 7.649 0 006.79-6.924h14.176v22.793h-20.966zm33.446-59.534a44.692 44.692 0 01-75.908-25.673 20.995 20.995 0 004.334 3.387c4.212 2.55 9.987 4.614 16.824 6.065a113.08 113.08 0 0023.14 2.271c12.82-.003 24.428-1.906 32.938-5.038a33.193 33.193 0 0010.243-5.615c.403-.351.77-.713 1.119-1.081a44.564 44.564 0 01-12.69 25.684zm-49.625-64.893a18.338 18.338 0 115.372 12.966 18.273 18.273 0 01-5.372-12.966zm-4.602 19.29a100.8 100.8 0 0111.719-1.723 20.751 20.751 0 0022.367.045 84.05 84.05 0 0120.597 4.345 30.795 30.795 0 019.458 5.15 10.847 10.847 0 012.404 2.84 5.445 5.445 0 010 5.6 14.41 14.41 0 01-5.272 4.902c-3.85 2.337-9.4 4.35-16.038 5.754a110.588 110.588 0 01-22.618 2.216c-12.565.003-23.94-1.885-32.065-4.882a30.792 30.792 0 01-9.458-5.15 10.844 10.844 0 01-2.404-2.84 5.445 5.445 0 010-5.6 14.41 14.41 0 015.272-4.902c3.85-2.338 9.4-4.35 16.038-5.754zM185.59 12.893a11.52 11.52 0 014.212-3.908 42.919 42.919 0 0112.995-4.66 89.87 89.87 0 0118.38-1.8c10.214-.003 19.46 1.534 26.046 3.963a24.868 24.868 0 017.633 4.154 8.606 8.606 0 011.908 2.25 4.204 4.204 0 010 4.337 11.52 11.52 0 01-4.212 3.907 42.92 42.92 0 01-12.995 4.66 89.876 89.876 0 01-18.38 1.8c-10.214.003-19.46-1.533-26.046-3.963a24.87 24.87 0 01-7.633-4.153 8.606 8.606 0 01-1.908-2.251 4.204 4.204 0 010-4.336zm2.903 10.401a45.31 45.31 0 0013.78 4.971 92.372 92.372 0 0018.904 1.855c10.47-.002 19.948-1.554 26.918-4.119a27.268 27.268 0 008.419-4.618c.303-.265.584-.537.852-.814V86.73c-.12.05-.24.098-.356.156a9.694 9.694 0 00-3.197 2.897 47.39 47.39 0 00-4.761 8.618c-2.293 5.024-4.55 10.739-6.882 15.124a25.682 25.682 0 01-3.493 5.274 7.03 7.03 0 01-1.639 1.362 2.843 2.843 0 01-1.409.413 6.273 6.273 0 01-4.046-1.675c-1.944-1.594-3.743-4.195-5.714-6.484a17.19 17.19 0 00-3.248-3.038 7.397 7.397 0 00-4.188-1.377 4.44 4.44 0 00-1.862.43 9.323 9.323 0 00-2.958 2.393 43.116 43.116 0 00-4.692 7.094c-2.315 4.129-4.641 8.82-6.928 12.412a23.831 23.831 0 01-3.324 4.315 6.651 6.651 0 01-1.47 1.109c-.067.034-.122.045-.185.074a56.602 56.602 0 00-12.026-9.517V20.57a17.478 17.478 0 003.505 2.724zm-83.63 121.774a53.862 53.862 0 11-15.775 38.086 53.687 53.687 0 0115.776-38.086zm-71.01-32.951a14.229 14.229 0 01-14.229-14.229V45.966a14.228 14.228 0 0114.229-14.229h116.98a14.228 14.228 0 0114.228 14.229v51.921a14.229 14.229 0 01-14.228 14.229H63.091l-2.743-5.968a1.262 1.262 0 00-2.293 0l-2.743 5.968zm.9 50.823a1.24 1.24 0 00.044-.15L59.2 109.697l24.405 53.092a1.237 1.237 0 00.044.15 2.531 2.531 0 01.224 1.015 2.671 2.671 0 01-.368 1.313 7.613 7.613 0 01-2.779 2.563 29.357 29.357 0 01-8.878 3.18 61.85 61.85 0 01-12.648 1.238 53.865 53.865 0 01-17.903-2.721 16.855 16.855 0 01-5.165-2.805 5.578 5.578 0 01-1.237-1.455 2.67 2.67 0 01-.368-1.313 2.533 2.533 0 01.225-1.015zm-15.545 33.853a1.258 1.258 0 00.071-.244l13.652-29.7a10.437 10.437 0 003.435 3.14 31.744 31.744 0 009.664 3.49 64.36 64.36 0 0013.171 1.293 56.289 56.289 0 0018.775-2.876 19.256 19.256 0 005.95-3.27 8.437 8.437 0 001.553-1.76l2.242 4.878a56.535 56.535 0 004.083 35.146 54.012 54.012 0 01-12.118 3.925 100.162 100.162 0 01-20.485 2.007c-11.382.003-21.685-1.708-29.036-4.42a27.81 27.81 0 01-8.54-4.648 9.717 9.717 0 01-2.153-2.543 5.058 5.058 0 01-.688-2.482 4.834 4.834 0 01.424-1.936zm39.993 59.038c-15.99.003-30.466-2.397-40.837-6.22a39.423 39.423 0 01-12.116-6.604 14.106 14.106 0 01-3.127-3.697 7.59 7.59 0 01-1.027-3.721 7.277 7.277 0 01.636-2.913 1.263 1.263 0 00.088-.315l14.092-30.658c.109.248.222.494.355.733a15.362 15.362 0 005.636 5.334 50.287 50.287 0 0015.292 5.514 102.658 102.658 0 0021.008 2.062c11.637-.003 22.174-1.729 29.908-4.575q2.043-.754 3.814-1.613a56.466 56.466 0 006.617 9.977 67.556 67.556 0 00-21.628 35.557 150.584 150.584 0 01-18.71 1.14zm149.564 41.637a8.8 8.8 0 01-1.19 4.313c-1.385 2.506-4.046 5.006-7.808 7.282-5.636 3.422-13.697 6.338-23.323 8.375a160.18 160.18 0 01-32.761 3.21c-18.193.003-34.662-2.725-46.476-7.08-5.906-2.174-10.641-4.76-13.826-7.538a16.203 16.203 0 01-3.591-4.249 8.799 8.799 0 01-1.19-4.313v-17.686a26.16 26.16 0 007.69 6.655c5.999 3.634 14.285 6.602 24.108 8.685a162.676 162.676 0 0033.285 3.266c18.448-.003 35.15-2.746 47.348-7.237 6.1-2.25 11.08-4.931 14.61-8.002a20.533 20.533 0 003.124-3.365zm-1.19-20.471c-1.385 2.506-4.046 5.005-7.808 7.282-5.636 3.421-13.697 6.338-23.323 8.374a160.18 160.18 0 01-32.761 3.211c-18.193.003-34.663-2.725-46.476-7.081-5.906-2.173-10.641-4.759-13.826-7.537a16.203 16.203 0 01-3.591-4.249 8.799 8.799 0 01-1.19-4.313v-2.368a64.872 64.872 0 0119.063-46.02 65.519 65.519 0 013.529-3.254 56.363 56.363 0 0084.144-.725 65.544 65.544 0 014.367 3.979 64.873 64.873 0 0119.062 46.02v2.368a8.8 8.8 0 01-1.19 4.313zm17.138-14.664v-.279a67.445 67.445 0 00-24.344-51.926 56.312 56.312 0 00-1.587-72.374 10.989 10.989 0 002.28-1.949 40.37 40.37 0 004.85-7.108c2.358-4.136 4.674-8.833 6.903-12.433a24.95 24.95 0 013.206-4.323 6.427 6.427 0 011.382-1.102 2.132 2.132 0 011.03-.314 4.39 4.39 0 011.863.425 10.584 10.584 0 013.205 2.598c1.617 1.772 3.207 4.069 5.075 5.996a13.868 13.868 0 003.117 2.49 7.976 7.976 0 003.936 1.065 5.185 5.185 0 002.186-.5 9.957 9.957 0 003.406-2.885 43.678 43.678 0 004.977-8.637c2.35-5.033 4.592-10.756 6.843-15.151a27.225 27.225 0 013.327-5.287 8.048 8.048 0 01.998-.977v57.61a63.1 63.1 0 00-4.002 1.31 33.192 33.192 0 00-10.243 5.615 13.336 13.336 0 00-2.952 3.517 8.238 8.238 0 00-1.093 4.026c0 .135.02.267.028.401a1.18 1.18 0 00-.028.136 47.135 47.135 0 0018.29 37.31v.174l-23.589 21.127c-.01.01-.015.022-.025.032-.008.007-.018.009-.025.016-.02.02-.029.05-.048.072a1.24 1.24 0 00-.187.28 1.218 1.218 0 00-.052.13 1.249 1.249 0 00-.066.326c-.002.029-.017.055-.017.084v22.86a1.162 1.162 0 000 1.093v15.862a93.796 93.796 0 01-8.644.69zm11.168 30.361v-20.882h12.33a7.646 7.646 0 007.546 6.439 7.731 7.731 0 00.869-.053v14.496H235.88zm23.269-15.245a7.646 7.646 0 004.152-5.637h18.64v20.882H259.15zm25.316-5.637h20.966v20.882h-20.966zm56.388-10.145l-32.898 29.465v-68.74l32.898-29.465z"/><path class="prefix__cls-4" d="M272.806 165.686a18.882 18.882 0 005.76 2.086 37.792 37.792 0 007.736.76 33.1 33.1 0 0011.055-1.697 11.653 11.653 0 003.61-1.991 5.198 5.198 0 001.15-1.378 3.45 3.45 0 000-3.455 6.314 6.314 0 00-2.318-2.22 18.886 18.886 0 00-5.76-2.086 37.78 37.78 0 00-7.737-.76 33.097 33.097 0 00-11.054 1.698 11.652 11.652 0 00-3.61 1.99 5.195 5.195 0 00-1.15 1.378 3.45 3.45 0 000 3.455 6.313 6.313 0 002.318 2.22z"/></svg>